<svg xmlns="http://www.w3.org/2000/svg" xmlns:xlink="http://www.w3.org/1999/xlink" width="100" zoomAndPan="magnify" viewBox="0 0 75 74.999997" height="100" preserveAspectRatio="xMidYMid meet" version="1.0"><defs><g/><clipPath id="fa40ba6d8e"><path d="M 33.699219 26.390625 L 46.738281 26.390625 L 46.738281 46.148438 L 33.699219 46.148438 Z M 33.699219 26.390625 " clip-rule="nonzero"/></clipPath></defs><g fill="#ffffff" fill-opacity="1"><g transform="translate(12.54382, 43.897906)"><g><path d="M 6.171875 0.125 C 4.578125 0.125 3.257812 -0.242188 2.21875 -0.984375 C 1.175781 -1.734375 0.613281 -2.832031 0.53125 -4.28125 L 4.984375 -4.28125 C 5.046875 -3.519531 5.382812 -3.140625 6 -3.140625 C 6.226562 -3.140625 6.421875 -3.191406 6.578125 -3.296875 C 6.734375 -3.398438 6.8125 -3.566406 6.8125 -3.796875 C 6.8125 -4.109375 6.640625 -4.359375 6.296875 -4.546875 C 5.960938 -4.742188 5.4375 -4.972656 4.71875 -5.234375 C 3.863281 -5.535156 3.15625 -5.828125 2.59375 -6.109375 C 2.03125 -6.398438 1.546875 -6.820312 1.140625 -7.375 C 0.742188 -7.925781 0.550781 -8.640625 0.5625 -9.515625 C 0.5625 -10.378906 0.785156 -11.113281 1.234375 -11.71875 C 1.679688 -12.332031 2.289062 -12.796875 3.0625 -13.109375 C 3.84375 -13.429688 4.71875 -13.59375 5.6875 -13.59375 C 7.320312 -13.59375 8.617188 -13.210938 9.578125 -12.453125 C 10.535156 -11.703125 11.039062 -10.640625 11.09375 -9.265625 L 6.59375 -9.265625 C 6.570312 -9.640625 6.472656 -9.910156 6.296875 -10.078125 C 6.128906 -10.242188 5.914062 -10.328125 5.65625 -10.328125 C 5.476562 -10.328125 5.332031 -10.265625 5.21875 -10.140625 C 5.113281 -10.023438 5.0625 -9.859375 5.0625 -9.640625 C 5.0625 -9.335938 5.226562 -9.085938 5.5625 -8.890625 C 5.894531 -8.703125 6.425781 -8.46875 7.15625 -8.1875 C 8 -7.875 8.691406 -7.570312 9.234375 -7.28125 C 9.785156 -7 10.257812 -6.597656 10.65625 -6.078125 C 11.0625 -5.554688 11.265625 -4.910156 11.265625 -4.140625 C 11.265625 -3.316406 11.0625 -2.582031 10.65625 -1.9375 C 10.257812 -1.289062 9.675781 -0.785156 8.90625 -0.421875 C 8.132812 -0.0546875 7.222656 0.125 6.171875 0.125 Z M 6.171875 0.125 "/></g></g></g><g fill="#ffffff" fill-opacity="1"><g transform="translate(22.774728, 43.897906)"><g><path d="M 7.453125 0.125 C 6.191406 0.125 5.035156 -0.164062 3.984375 -0.75 C 2.941406 -1.34375 2.109375 -2.160156 1.484375 -3.203125 C 0.867188 -4.253906 0.5625 -5.429688 0.5625 -6.734375 C 0.5625 -8.046875 0.867188 -9.222656 1.484375 -10.265625 C 2.109375 -11.304688 2.941406 -12.117188 3.984375 -12.703125 C 5.035156 -13.296875 6.191406 -13.59375 7.453125 -13.59375 C 8.710938 -13.59375 9.863281 -13.296875 10.90625 -12.703125 C 11.945312 -12.117188 12.773438 -11.304688 13.390625 -10.265625 C 14.003906 -9.222656 14.3125 -8.046875 14.3125 -6.734375 C 14.3125 -5.429688 14.003906 -4.253906 13.390625 -3.203125 C 12.773438 -2.160156 11.941406 -1.34375 10.890625 -0.75 C 9.847656 -0.164062 8.703125 0.125 7.453125 0.125 Z M 7.453125 -3.78125 C 8.285156 -3.78125 8.925781 -4.046875 9.375 -4.578125 C 9.832031 -5.109375 10.0625 -5.828125 10.0625 -6.734375 C 10.0625 -7.648438 9.832031 -8.375 9.375 -8.90625 C 8.925781 -9.445312 8.285156 -9.71875 7.453125 -9.71875 C 6.609375 -9.71875 5.957031 -9.445312 5.5 -8.90625 C 5.050781 -8.375 4.828125 -7.648438 4.828125 -6.734375 C 4.828125 -5.828125 5.050781 -5.109375 5.5 -4.578125 C 5.957031 -4.046875 6.609375 -3.78125 7.453125 -3.78125 Z M 7.453125 -3.78125 "/></g></g></g><g fill="#ffffff" fill-opacity="1"><g transform="translate(36.084443, 43.897906)"><g/></g></g><g fill="#ffffff" fill-opacity="1"><g transform="translate(37.726513, 43.897906)"><g/></g></g><g fill="#ffffff" fill-opacity="1"><g transform="translate(39.368584, 43.897906)"><g/></g></g><g fill="#ffffff" fill-opacity="1"><g transform="translate(41.010654, 43.897906)"><g/></g></g><g fill="#ffffff" fill-opacity="1"><g transform="translate(42.652724, 43.897906)"><g/></g></g><g fill="#ffffff" fill-opacity="1"><g transform="translate(44.294794, 43.897906)"><g/></g></g><g fill="#ffffff" fill-opacity="1"><g transform="translate(45.937568, 43.897906)"><g><path d="M 7.453125 0.125 C 6.191406 0.125 5.035156 -0.164062 3.984375 -0.75 C 2.941406 -1.34375 2.109375 -2.160156 1.484375 -3.203125 C 0.867188 -4.253906 0.5625 -5.429688 0.5625 -6.734375 C 0.5625 -8.046875 0.867188 -9.222656 1.484375 -10.265625 C 2.109375 -11.304688 2.941406 -12.117188 3.984375 -12.703125 C 5.035156 -13.296875 6.191406 -13.59375 7.453125 -13.59375 C 8.710938 -13.59375 9.863281 -13.296875 10.90625 -12.703125 C 11.945312 -12.117188 12.773438 -11.304688 13.390625 -10.265625 C 14.003906 -9.222656 14.3125 -8.046875 14.3125 -6.734375 C 14.3125 -5.429688 14.003906 -4.253906 13.390625 -3.203125 C 12.773438 -2.160156 11.941406 -1.34375 10.890625 -0.75 C 9.847656 -0.164062 8.703125 0.125 7.453125 0.125 Z M 7.453125 -3.78125 C 8.285156 -3.78125 8.925781 -4.046875 9.375 -4.578125 C 9.832031 -5.109375 10.0625 -5.828125 10.0625 -6.734375 C 10.0625 -7.648438 9.832031 -8.375 9.375 -8.90625 C 8.925781 -9.445312 8.285156 -9.71875 7.453125 -9.71875 C 6.609375 -9.71875 5.957031 -9.445312 5.5 -8.90625 C 5.050781 -8.375 4.828125 -7.648438 4.828125 -6.734375 C 4.828125 -5.828125 5.050781 -5.109375 5.5 -4.578125 C 5.957031 -4.046875 6.609375 -3.78125 7.453125 -3.78125 Z M 7.453125 -3.78125 "/></g></g></g><g fill="#ffffff" fill-opacity="1"><g transform="translate(59.245379, 43.897906)"><g/></g></g><g clip-path="url(#fa40ba6d8e)"><path fill="#ffffff" d="M 46.367188 34.1875 C 46.28125 34.175781 46.0625 34.195312 46.070312 34.285156 C 46.082031 34.371094 46.101562 34.46875 46.078125 34.511719 C 46.050781 34.550781 45.953125 34.71875 45.953125 34.71875 C 45.953125 34.71875 45.851562 34.644531 45.753906 34.621094 C 45.652344 34.597656 45.375 34.578125 45.324219 34.546875 C 45.273438 34.519531 44.828125 34.195312 44.738281 34.121094 C 44.644531 34.042969 44.367188 33.855469 44.25 33.730469 C 44.128906 33.609375 44.0625 33.640625 44.0625 33.480469 C 44.0625 33.320312 43.996094 33.242188 43.878906 33.128906 C 43.761719 33.015625 43.695312 32.898438 43.671875 32.683594 C 43.648438 32.472656 43.480469 31.746094 43.414062 31.605469 C 43.347656 31.464844 43.257812 31.070312 43.25 30.914062 C 43.238281 30.757812 43.304688 30.683594 43.292969 30.515625 C 43.277344 30.34375 43.261719 30.3125 43.363281 30.253906 C 43.460938 30.199219 43.582031 30.066406 43.582031 30.011719 C 43.582031 29.960938 43.253906 29.957031 43.195312 29.914062 C 43.140625 29.871094 43.109375 29.792969 43.058594 29.730469 C 43.007812 29.667969 42.972656 29.574219 42.972656 29.574219 L 43.03125 29.515625 C 43.03125 29.515625 43.261719 29.625 43.414062 29.585938 C 43.566406 29.550781 43.628906 29.128906 43.671875 29.023438 C 43.714844 28.917969 43.871094 28.6875 43.882812 28.574219 C 43.898438 28.460938 43.90625 28.355469 43.90625 28.355469 C 43.90625 28.355469 44.371094 28.136719 44.519531 27.957031 C 44.664062 27.777344 44.753906 27.136719 44.695312 27.0625 C 44.632812 26.988281 43.992188 27.039062 43.9375 27.035156 C 43.878906 27.03125 43.464844 26.421875 43.183594 26.40625 C 42.902344 26.394531 42.449219 26.441406 42.175781 26.570312 C 41.898438 26.695312 41.667969 27.003906 41.625 27.195312 C 41.582031 27.382812 41.675781 27.871094 41.644531 27.964844 C 41.609375 28.0625 41.089844 28.308594 41.039062 28.34375 C 40.984375 28.382812 41.023438 28.46875 41.023438 28.46875 C 41.023438 28.46875 40.347656 28.277344 40.136719 28.308594 C 39.929688 28.335938 39.625 28.386719 39.507812 28.535156 C 39.390625 28.683594 38.976562 29.15625 38.878906 29.335938 C 38.777344 29.515625 38.664062 29.722656 38.589844 29.742188 C 38.511719 29.761719 37.949219 29.820312 37.890625 29.867188 C 37.835938 29.914062 37.523438 30.5625 37.371094 31.121094 C 37.21875 31.679688 37.105469 32.875 37.152344 33.082031 C 37.199219 33.292969 37.25 33.738281 37.230469 33.972656 C 37.210938 34.210938 37.4375 34.550781 37.457031 34.683594 C 37.476562 34.816406 37.699219 35.242188 37.664062 35.300781 C 37.632812 35.355469 37.46875 35.46875 37.5625 35.59375 C 37.652344 35.714844 37.976562 35.855469 37.976562 35.855469 C 37.976562 35.855469 37.96875 36.535156 38.015625 36.753906 C 38.0625 36.972656 38.238281 37.023438 38.238281 37.023438 L 38.386719 36.914062 C 38.386719 36.914062 38.191406 36.792969 38.210938 36.519531 C 38.230469 36.25 38.234375 35.894531 38.234375 35.894531 L 38.421875 35.902344 C 38.421875 35.902344 38.570312 36.167969 38.820312 36.273438 L 38.941406 36.15625 C 38.941406 36.15625 38.761719 36.042969 38.6875 35.886719 C 38.6875 35.886719 38.976562 35.972656 39.136719 35.96875 C 39.300781 35.960938 39.488281 35.886719 39.488281 35.886719 C 39.488281 35.886719 39.539062 36.445312 39.570312 36.507812 C 39.597656 36.570312 39.695312 36.570312 39.695312 36.597656 C 39.695312 36.625 39.859375 37.441406 40.050781 37.71875 C 40.246094 38 40.421875 38.085938 40.421875 38.085938 C 40.421875 38.085938 40.402344 38.292969 40.398438 38.519531 L 34.707031 43.449219 C 34.621094 43.363281 34.539062 43.3125 34.519531 43.332031 C 34.5 43.351562 34.542969 43.433594 34.621094 43.527344 L 33.714844 44.3125 C 33.714844 44.3125 33.703125 44.363281 33.726562 44.390625 C 33.75 44.421875 33.78125 44.414062 33.78125 44.414062 L 34.707031 43.625 C 34.796875 43.710938 34.875 43.765625 34.898438 43.746094 C 34.917969 43.726562 34.875 43.644531 34.796875 43.550781 L 40.40625 38.789062 C 40.414062 38.878906 40.429688 38.960938 40.453125 39.007812 C 40.550781 39.207031 40.609375 39.503906 40.59375 39.617188 C 40.582031 39.734375 40.550781 39.851562 40.550781 39.917969 C 40.550781 39.980469 40.574219 40.117188 40.460938 40.203125 C 40.347656 40.289062 40.195312 40.550781 40.011719 40.648438 C 39.828125 40.75 39.101562 41.105469 38.667969 41.367188 C 38.234375 41.628906 37.558594 42.164062 37.402344 42.339844 C 37.246094 42.519531 37.003906 42.71875 36.960938 42.71875 C 36.917969 42.71875 36.589844 42.699219 36.429688 42.738281 C 36.269531 42.777344 36.113281 42.851562 36.101562 42.851562 C 36.089844 42.851562 35.945312 42.824219 35.828125 42.875 C 35.710938 42.921875 35.898438 43.828125 35.953125 43.925781 C 36.007812 44.023438 36.121094 44.097656 36.128906 44.230469 C 36.136719 44.367188 36.226562 45.035156 36.335938 45.320312 C 36.449219 45.605469 36.820312 46.066406 36.933594 46.109375 C 37.042969 46.152344 37.171875 46.023438 37.171875 46.023438 C 37.171875 46.023438 37.269531 45.957031 37.246094 45.808594 C 37.222656 45.660156 37.148438 45.316406 37.179688 45.179688 C 37.210938 45.042969 37.402344 44.863281 37.417969 44.667969 C 37.429688 44.472656 37.460938 44.207031 37.496094 44.175781 C 37.535156 44.140625 37.90625 43.984375 37.933594 43.910156 C 37.960938 43.832031 38.175781 43.867188 38.199219 43.753906 C 38.222656 43.640625 38.515625 43.417969 38.691406 43.273438 C 38.867188 43.132812 39.523438 42.617188 39.777344 42.460938 C 40.027344 42.304688 40.316406 42.25 40.40625 42.214844 C 40.496094 42.175781 40.585938 42.019531 40.652344 41.984375 C 40.71875 41.953125 41.007812 41.835938 41.144531 41.777344 C 41.28125 41.722656 41.523438 41.644531 41.617188 41.578125 C 41.714844 41.511719 41.84375 41.308594 41.84375 41.308594 C 41.84375 41.308594 41.890625 42.230469 41.855469 42.414062 C 41.824219 42.59375 41.792969 43.410156 41.792969 43.75 C 41.792969 44.085938 41.804688 44.753906 41.832031 44.804688 C 41.859375 44.855469 42.027344 44.894531 42.003906 44.953125 C 41.980469 45.007812 41.847656 45.136719 41.867188 45.242188 C 41.882812 45.347656 42.003906 45.589844 41.996094 45.761719 C 41.988281 45.933594 41.960938 46.09375 42.050781 46.117188 C 42.144531 46.144531 42.449219 46.175781 42.800781 46.171875 C 43.148438 46.167969 43.132812 46.054688 43.203125 46.035156 C 43.269531 46.011719 43.570312 46.019531 43.746094 46.074219 C 43.921875 46.132812 44.300781 46.171875 44.601562 46.152344 C 44.902344 46.132812 45.21875 46.078125 45.292969 46.027344 C 45.371094 45.976562 45.25 45.824219 45.25 45.824219 C 45.25 45.824219 45.164062 45.574219 44.945312 45.542969 C 44.726562 45.507812 44.496094 45.480469 44.347656 45.398438 C 44.195312 45.3125 44.085938 45.15625 43.964844 45.082031 C 43.902344 45.046875 43.804688 44.976562 43.722656 44.90625 L 43.894531 44.230469 C 44.015625 44.25 44.109375 44.246094 44.117188 44.214844 C 44.121094 44.1875 44.039062 44.148438 43.921875 44.117188 L 45.96875 35.914062 C 46.0625 35.929688 46.171875 35.910156 46.191406 35.890625 C 46.21875 35.863281 46.238281 35.800781 46.238281 35.800781 C 46.238281 35.800781 46.363281 35.765625 46.40625 35.722656 C 46.449219 35.683594 46.421875 35.605469 46.421875 35.605469 C 46.421875 35.605469 46.519531 35.5625 46.527344 35.484375 C 46.53125 35.40625 46.480469 35.34375 46.480469 35.34375 C 46.480469 35.34375 46.582031 35.257812 46.578125 35.171875 C 46.570312 35.085938 46.441406 34.9375 46.390625 34.902344 C 46.339844 34.867188 46.382812 34.65625 46.429688 34.613281 C 46.472656 34.570312 46.675781 34.511719 46.679688 34.433594 C 46.6875 34.355469 46.449219 34.203125 46.363281 34.191406 Z M 43.792969 44.089844 C 43.671875 44.070312 43.574219 44.074219 43.570312 44.101562 C 43.5625 44.128906 43.648438 44.171875 43.765625 44.203125 L 43.621094 44.804688 C 43.59375 44.777344 43.574219 44.75 43.566406 44.722656 C 43.53125 44.625 43.550781 44.570312 43.496094 44.527344 C 43.4375 44.480469 43.363281 44.429688 43.363281 44.429688 C 43.363281 44.429688 43.476562 44.132812 43.464844 44.042969 C 43.449219 43.949219 43.339844 43.546875 43.332031 43.433594 C 43.320312 43.324219 43.523438 42.660156 43.464844 42.410156 C 43.410156 42.160156 43.359375 41.90625 43.378906 41.757812 C 43.402344 41.605469 43.742188 41.210938 43.742188 40.855469 C 43.742188 40.5 43.539062 39.9375 43.5 39.71875 C 43.464844 39.496094 43.445312 38.921875 43.378906 38.660156 C 43.316406 38.394531 43.175781 38.195312 43.117188 37.910156 C 43.0625 37.628906 42.925781 37.476562 42.941406 37.355469 C 42.953125 37.238281 42.988281 37.09375 43.03125 36.988281 C 43.074219 36.882812 43.058594 36.683594 43.058594 36.683594 C 43.058594 36.683594 43.15625 36.671875 43.203125 36.65625 C 43.246094 36.640625 43.269531 36.570312 43.269531 36.570312 C 43.269531 36.570312 43.394531 36.632812 43.449219 36.613281 C 43.503906 36.59375 43.546875 36.480469 43.546875 36.480469 C 43.546875 36.480469 43.6875 36.484375 43.742188 36.429688 C 43.796875 36.375 43.800781 36.257812 43.800781 36.257812 C 43.800781 36.257812 43.984375 36.210938 44.015625 36.15625 C 44.042969 36.101562 43.949219 35.886719 43.976562 35.863281 C 44.003906 35.835938 44.214844 35.820312 44.328125 35.804688 C 44.441406 35.789062 44.222656 35.507812 44.113281 35.417969 C 44.007812 35.332031 43.929688 35.300781 43.886719 35.332031 C 43.84375 35.363281 43.828125 35.421875 43.789062 35.445312 C 43.746094 35.46875 43.695312 35.484375 43.695312 35.484375 C 43.695312 35.484375 43.585938 35.335938 43.464844 35.285156 C 43.347656 35.230469 43.101562 35.253906 43.101562 35.253906 C 43.101562 35.253906 42.96875 35.105469 42.945312 35.046875 C 42.921875 34.988281 43.015625 34.539062 43.015625 34.539062 C 43.015625 34.539062 43.605469 34.933594 43.839844 35.148438 C 44.074219 35.363281 44.585938 35.507812 44.734375 35.542969 C 44.882812 35.578125 45.109375 35.613281 45.167969 35.597656 C 45.230469 35.585938 45.253906 35.527344 45.253906 35.527344 C 45.253906 35.527344 45.34375 35.53125 45.40625 35.582031 C 45.453125 35.621094 45.644531 35.722656 45.769531 35.804688 L 43.792969 44.085938 Z M 43.792969 44.089844 " fill-opacity="1" fill-rule="nonzero"/></g><g fill="#ffffff" fill-opacity="1"><g transform="translate(21.233115, 50.225884)"><g><path d="M 1.625 -2.234375 L 1.625 -2 L 1.015625 -2 L 1.015625 0 L 0.71875 0 L 0.71875 -2 L 0.109375 -2 L 0.109375 -2.234375 Z M 1.625 -2.234375 "/></g></g></g><g fill="#ffffff" fill-opacity="1"><g transform="translate(25.523883, 50.225884)"><g><path d="M 1.421875 0 L 0.890625 -0.90625 L 0.53125 -0.90625 L 0.53125 0 L 0.25 0 L 0.25 -2.234375 L 0.96875 -2.234375 C 1.132812 -2.234375 1.273438 -2.203125 1.390625 -2.140625 C 1.503906 -2.085938 1.59375 -2.007812 1.65625 -1.90625 C 1.71875 -1.8125 1.75 -1.703125 1.75 -1.578125 C 1.75 -1.421875 1.703125 -1.285156 1.609375 -1.171875 C 1.523438 -1.054688 1.390625 -0.976562 1.203125 -0.9375 L 1.765625 0 Z M 0.53125 -1.140625 L 0.96875 -1.140625 C 1.125 -1.140625 1.238281 -1.175781 1.3125 -1.25 C 1.394531 -1.332031 1.4375 -1.441406 1.4375 -1.578125 C 1.4375 -1.710938 1.394531 -1.816406 1.3125 -1.890625 C 1.238281 -1.960938 1.125 -2 0.96875 -2 L 0.53125 -2 Z M 0.53125 -1.140625 "/></g></g></g><g fill="#ffffff" fill-opacity="1"><g transform="translate(30.029, 50.225884)"><g><path d="M 0.53125 -2 L 0.53125 -1.25 L 1.359375 -1.25 L 1.359375 -1.015625 L 0.53125 -1.015625 L 0.53125 -0.234375 L 1.453125 -0.234375 L 1.453125 0 L 0.25 0 L 0.25 -2.234375 L 1.453125 -2.234375 L 1.453125 -2 Z M 0.53125 -2 "/></g></g></g><g fill="#ffffff" fill-opacity="1"><g transform="translate(34.230191, 50.225884)"><g><path d="M 1.453125 0 L 0.53125 -1.015625 L 0.53125 0 L 0.25 0 L 0.25 -2.234375 L 0.53125 -2.234375 L 0.53125 -1.203125 L 1.453125 -2.234375 L 1.828125 -2.234375 L 0.8125 -1.109375 L 1.84375 0 Z M 1.453125 0 "/></g></g></g><g fill="#ffffff" fill-opacity="1"><g transform="translate(38.706515, 50.225884)"><g><path d="M 1.453125 0 L 0.53125 -1.015625 L 0.53125 0 L 0.25 0 L 0.25 -2.234375 L 0.53125 -2.234375 L 0.53125 -1.203125 L 1.453125 -2.234375 L 1.828125 -2.234375 L 0.8125 -1.109375 L 1.84375 0 Z M 1.453125 0 "/></g></g></g><g fill="#ffffff" fill-opacity="1"><g transform="translate(43.18284, 50.225884)"><g><path d="M 0.53125 -2 L 0.53125 -1.25 L 1.359375 -1.25 L 1.359375 -1.015625 L 0.53125 -1.015625 L 0.53125 -0.234375 L 1.453125 -0.234375 L 1.453125 0 L 0.25 0 L 0.25 -2.234375 L 1.453125 -2.234375 L 1.453125 -2 Z M 0.53125 -2 "/></g></g></g><g fill="#ffffff" fill-opacity="1"><g transform="translate(47.38403, 50.225884)"><g><path d="M 1.421875 0 L 0.890625 -0.90625 L 0.53125 -0.90625 L 0.53125 0 L 0.25 0 L 0.25 -2.234375 L 0.96875 -2.234375 C 1.132812 -2.234375 1.273438 -2.203125 1.390625 -2.140625 C 1.503906 -2.085938 1.59375 -2.007812 1.65625 -1.90625 C 1.71875 -1.8125 1.75 -1.703125 1.75 -1.578125 C 1.75 -1.421875 1.703125 -1.285156 1.609375 -1.171875 C 1.523438 -1.054688 1.390625 -0.976562 1.203125 -0.9375 L 1.765625 0 Z M 0.53125 -1.140625 L 0.96875 -1.140625 C 1.125 -1.140625 1.238281 -1.175781 1.3125 -1.25 C 1.394531 -1.332031 1.4375 -1.441406 1.4375 -1.578125 C 1.4375 -1.710938 1.394531 -1.816406 1.3125 -1.890625 C 1.238281 -1.960938 1.125 -2 0.96875 -2 L 0.53125 -2 Z M 0.53125 -1.140625 "/></g></g></g><g fill="#ffffff" fill-opacity="1"><g transform="translate(51.889147, 50.225884)"><g><path d="M 0.953125 0.015625 C 0.804688 0.015625 0.675781 -0.0078125 0.5625 -0.0625 C 0.445312 -0.113281 0.351562 -0.179688 0.28125 -0.265625 C 0.21875 -0.359375 0.1875 -0.46875 0.1875 -0.59375 L 0.5 -0.59375 C 0.507812 -0.488281 0.550781 -0.398438 0.625 -0.328125 C 0.695312 -0.253906 0.804688 -0.21875 0.953125 -0.21875 C 1.085938 -0.21875 1.195312 -0.253906 1.28125 -0.328125 C 1.363281 -0.398438 1.40625 -0.488281 1.40625 -0.59375 C 1.40625 -0.675781 1.378906 -0.742188 1.328125 -0.796875 C 1.285156 -0.859375 1.226562 -0.898438 1.15625 -0.921875 C 1.082031 -0.953125 0.988281 -0.984375 0.875 -1.015625 C 0.726562 -1.054688 0.609375 -1.09375 0.515625 -1.125 C 0.429688 -1.164062 0.359375 -1.226562 0.296875 -1.3125 C 0.234375 -1.394531 0.203125 -1.503906 0.203125 -1.640625 C 0.203125 -1.765625 0.226562 -1.875 0.28125 -1.96875 C 0.34375 -2.0625 0.429688 -2.132812 0.546875 -2.1875 C 0.660156 -2.238281 0.789062 -2.265625 0.9375 -2.265625 C 1.144531 -2.265625 1.316406 -2.210938 1.453125 -2.109375 C 1.585938 -2.003906 1.660156 -1.863281 1.671875 -1.6875 L 1.359375 -1.6875 C 1.347656 -1.769531 1.300781 -1.84375 1.21875 -1.90625 C 1.144531 -1.976562 1.039062 -2.015625 0.90625 -2.015625 C 0.78125 -2.015625 0.679688 -1.984375 0.609375 -1.921875 C 0.535156 -1.859375 0.5 -1.769531 0.5 -1.65625 C 0.5 -1.570312 0.519531 -1.503906 0.5625 -1.453125 C 0.601562 -1.398438 0.65625 -1.359375 0.71875 -1.328125 C 0.789062 -1.304688 0.890625 -1.28125 1.015625 -1.25 C 1.160156 -1.207031 1.273438 -1.164062 1.359375 -1.125 C 1.453125 -1.082031 1.53125 -1.019531 1.59375 -0.9375 C 1.664062 -0.851562 1.703125 -0.742188 1.703125 -0.609375 C 1.703125 -0.492188 1.671875 -0.390625 1.609375 -0.296875 C 1.554688 -0.203125 1.472656 -0.125 1.359375 -0.0625 C 1.242188 -0.0078125 1.109375 0.015625 0.953125 0.015625 Z M 0.953125 0.015625 "/></g></g></g></svg>